<svg xmlns="http://www.w3.org/2000/svg" viewBox="0 0 128 128">
  <path fill="#ccc" d="M114.43 71.5a25.13 25.13 0 00-31.74-24.23A26.28 26.28 0 0032.3 57.5a19.58 19.58 0 00.86 39.14l.13-.01H89.4a25.13 25.13 0 0025.02-25.12z"/>
  <path fill="#666" d="M30.75 99.16v-.13a22.1 22.1 0 01-.9-43.84A28.8 28.8 0 0184.1 44.34a27.65 27.65 0 0132.85 27.16 27.66 27.66 0 01-25.02 27.53v.13H30.75zm58.02-5.05h.63a22.6 22.6 0 0022.5-22.6 22.63 22.63 0 00-22.6-22.6c-2.06 0-4.05.28-5.94.8l-2.12.57-.87-2.02a23.74 23.74 0 00-45.56 9.25l-.01 2.4-2.4.11c-9.07.4-16.3 7.87-16.3 17.03a17.08 17.08 0 0017 17.06h55.67z"/>
</svg>
