<svg xmlns="http://www.w3.org/2000/svg" viewBox="0 0 128 128">
  <path fill="#fff" d="M14.13 106.53zm95.9-1.44a9.78 9.78 0 01-2.1-2.9c-1.02-2.05-1.74-4.21-2.55-5.28-.57-.72-.8-.83-1.31-.85-.41 0-.64.1-1.05.46-.4.36-.86 1.02-1.31 1.86-.94 1.68-1.76 3.96-3.24 5.82a5.77 5.77 0 01-4.52 2.34h-.09c-1.49.01-2.84-.6-3.78-1.45a9.8 9.8 0 01-2.1-2.9c-1.02-2.05-1.74-4.21-2.54-5.28-.57-.72-.8-.83-1.31-.85-.42 0-.64.1-1.06.46-.4.36-.86 1.02-1.3 1.86-.94 1.69-1.76 3.97-3.24 5.82a5.78 5.78 0 01-4.53 2.34h-.05c-1.5.01-2.85-.6-3.79-1.45a9.77 9.77 0 01-2.1-2.9c-1.02-2.04-1.74-4.21-2.54-5.28-.57-.72-.8-.83-1.31-.85-.42.01-.64.1-1.05.46a7.3 7.3 0 00-1.32 1.86c-.93 1.69-1.75 3.97-3.23 5.82a5.78 5.78 0 01-4.53 2.34h-.17c-1.5.02-2.85-.6-3.78-1.45a9.79 9.79 0 01-2.1-2.9c-1.02-2.04-1.74-4.21-2.55-5.28-.57-.71-.8-.83-1.3-.85-.42.01-.65.1-1.06.46-.4.36-.86 1.02-1.31 1.86-.94 1.69-1.75 3.97-3.24 5.82a5.77 5.77 0 01-4.52 2.34H34c-1.5.02-2.85-.6-3.78-1.45a9.77 9.77 0 01-2.1-2.9c-1.02-2.04-1.74-4.21-2.55-5.27-.57-.72-.8-.83-1.3-.86-.42.01-.64.1-1.06.46-.4.36-.86 1.03-1.31 1.87-.94 1.68-1.76 3.96-3.24 5.81a5.77 5.77 0 01-4.52 2.34v-3.8c.46 0 .72-.11 1.15-.47.41-.37.88-1.03 1.34-1.86.95-1.67 1.75-3.93 3.2-5.79a5.61 5.61 0 014.43-2.35 5.04 5.04 0 013.6 1.51c.87.86 1.43 1.87 1.92 2.88.94 2 1.68 4.12 2.55 5.17.6.7.93.9 1.67.92h.06c.47-.01.72-.12 1.15-.48.41-.37.88-1.02 1.34-1.85.95-1.68 1.75-3.94 3.2-5.8a5.61 5.61 0 014.43-2.35 5.04 5.04 0 013.6 1.51c.87.86 1.43 1.87 1.92 2.88.94 2 1.68 4.12 2.55 5.17.6.7.93.9 1.67.92h.17c.47-.01.73-.12 1.16-.48.41-.36.88-1.02 1.34-1.85.94-1.68 1.75-3.94 3.19-5.8a5.6 5.6 0 014.44-2.35 5.04 5.04 0 013.6 1.51c.86.87 1.42 1.87 1.91 2.88.95 2 1.69 4.13 2.56 5.17.6.7.92.9 1.67.92H74c.47-.01.73-.12 1.16-.48a7.2 7.2 0 001.34-1.85c.94-1.68 1.75-3.94 3.2-5.8a5.61 5.61 0 014.43-2.35 5.05 5.05 0 013.6 1.51c.87.87 1.43 1.87 1.91 2.88.95 2 1.69 4.13 2.56 5.17.6.7.93.9 1.67.93h.08c.46-.02.72-.13 1.15-.5.42-.35.88-1.01 1.34-1.84.94-1.68 1.75-3.94 3.2-5.8a5.61 5.61 0 014.43-2.35 5.05 5.05 0 013.6 1.52c.87.86 1.43 1.86 1.92 2.87.94 2.01 1.68 4.13 2.55 5.17.6.7.93.9 1.67.93h.06v3.79h-.12a5.63 5.63 0 01-3.72-1.46z"/>
  <path fill="#f2f2f2" d="M93.95 88.83h-.08c-1.5.02-2.85-.59-3.78-1.44a9.78 9.78 0 01-2.1-2.9c-1.03-2.05-1.75-4.22-2.55-5.28-.57-.72-.8-.83-1.31-.86-.42.02-.64.1-1.05.47a7.3 7.3 0 00-1.32 1.86c-.93 1.68-1.75 3.96-3.23 5.82A5.78 5.78 0 0174 88.84h-.05c-1.5 0-2.85-.6-3.78-1.45a9.75 9.75 0 01-2.1-2.9c-1.03-2.05-1.75-4.22-2.55-5.28-.57-.72-.8-.83-1.3-.86-.42.02-.65.1-1.06.47-.4.36-.86 1.02-1.31 1.86-.94 1.68-1.76 3.96-3.24 5.82a5.78 5.78 0 01-4.53 2.34h-.17c-1.49.01-2.84-.6-3.78-1.45a9.76 9.76 0 01-2.1-2.9c-1.02-2.05-1.74-4.22-2.55-5.28-.57-.72-.79-.83-1.3-.86-.42.02-.64.1-1.06.47-.4.36-.86 1.02-1.31 1.86-.94 1.68-1.75 3.96-3.24 5.82a5.77 5.77 0 01-4.52 2.34H34a5.6 5.6 0 01-3.78-1.45 9.74 9.74 0 01-2.1-2.9c-1.02-2.05-1.74-4.21-2.55-5.28-.57-.72-.8-.83-1.3-.85-.42.01-.64.1-1.06.46-.4.36-.86 1.02-1.31 1.86-.94 1.68-1.75 3.97-3.24 5.82a5.77 5.77 0 01-4.52 2.34v-3.8c.47 0 .72-.12 1.15-.48.42-.36.89-1.02 1.34-1.85.95-1.67 1.75-3.94 3.2-5.8a5.62 5.62 0 014.43-2.35 5.07 5.07 0 013.6 1.52c.87.86 1.43 1.87 1.92 2.88.94 2 1.68 4.12 2.55 5.16.6.7.93.9 1.67.93h.06c.47-.01.73-.13 1.16-.49.4-.36.88-1.02 1.33-1.85.95-1.67 1.76-3.94 3.2-5.79a5.61 5.61 0 014.43-2.36 5.06 5.06 0 013.6 1.52c.87.86 1.43 1.87 1.92 2.88.94 2 1.68 4.12 2.55 5.17.6.7.93.89 1.67.92h.17c.47-.01.73-.12 1.16-.49a7.2 7.2 0 001.34-1.85c.94-1.67 1.75-3.94 3.2-5.79a5.61 5.61 0 014.43-2.35 5.06 5.06 0 013.6 1.5c.87.87 1.42 1.88 1.91 2.89.95 2 1.7 4.12 2.56 5.17.6.7.93.89 1.67.92H74c.47-.01.73-.12 1.16-.49.41-.36.88-1.01 1.34-1.85.94-1.67 1.75-3.94 3.2-5.79a5.62 5.62 0 014.43-2.35 5.07 5.07 0 013.6 1.5c.87.87 1.43 1.88 1.91 2.89.95 2 1.7 4.12 2.56 5.17.6.7.93.9 1.67.92h.08c.47-.01.72-.12 1.15-.48.42-.36.88-1.02 1.34-1.86.95-1.67 1.75-3.93 3.2-5.79a5.62 5.62 0 014.43-2.35 5.07 5.07 0 013.6 1.51c.87.86 1.43 1.87 1.92 2.88.94 2 1.68 4.12 2.55 5.17.6.7.93.9 1.67.92h.06v3.8h-.06a5.6 5.6 0 01-3.78-1.45 9.76 9.76 0 01-2.1-2.9c-1.02-2.05-1.74-4.22-2.55-5.28-.57-.72-.8-.83-1.3-.86-.42.02-.65.1-1.06.47-.4.36-.86 1.02-1.31 1.86-.94 1.68-1.76 3.96-3.24 5.82a5.78 5.78 0 01-4.48 2.34c-.01-.02-.03-.02-.04-.02z"/>
  <path fill="#e6e6e6" d="M93.95 71.14h-.08a5.57 5.57 0 01-3.78-1.45 9.77 9.77 0 01-2.1-2.9c-1.03-2.05-1.75-4.22-2.55-5.28-.57-.72-.8-.83-1.31-.86-.42.02-.64.1-1.05.47-.4.36-.86 1.02-1.32 1.86-.93 1.68-1.75 3.96-3.23 5.82A5.77 5.77 0 0174 71.13h-.05a5.56 5.56 0 01-3.78-1.44 9.73 9.73 0 01-2.1-2.9c-1.03-2.05-1.75-4.21-2.55-5.28-.57-.72-.8-.83-1.3-.86-.42.02-.65.1-1.06.47-.4.36-.86 1.02-1.31 1.86-.94 1.68-1.76 3.96-3.24 5.82a5.77 5.77 0 01-4.53 2.34h-.17a5.57 5.57 0 01-3.78-1.45 9.75 9.75 0 01-2.1-2.9c-1.02-2.05-1.74-4.21-2.55-5.28-.57-.72-.79-.83-1.3-.85-.42 0-.64.1-1.06.46-.4.36-.86 1.02-1.31 1.86-.94 1.68-1.75 3.97-3.24 5.82a5.76 5.76 0 01-4.52 2.34H34a5.58 5.58 0 01-3.78-1.45 9.73 9.73 0 01-2.1-2.9c-1.02-2.04-1.74-4.21-2.55-5.28-.57-.72-.8-.83-1.3-.85-.42.01-.64.1-1.06.46a7.4 7.4 0 00-1.31 1.86c-.94 1.69-1.75 3.97-3.24 5.82a5.77 5.77 0 01-4.52 2.34v-3.8c.47 0 .72-.11 1.15-.48a7.2 7.2 0 001.34-1.85c.95-1.67 1.75-3.94 3.2-5.79a5.61 5.61 0 014.43-2.35 5.05 5.05 0 013.6 1.5c.87.87 1.43 1.88 1.92 2.89.94 2 1.68 4.12 2.55 5.17.6.7.93.89 1.67.92h.06c.47-.01.73-.12 1.16-.49a7.2 7.2 0 001.33-1.85c.95-1.67 1.76-3.94 3.2-5.79a5.61 5.61 0 014.43-2.35 5.04 5.04 0 013.6 1.5c.87.87 1.43 1.88 1.92 2.89.94 2 1.68 4.12 2.55 5.17.6.7.93.9 1.67.92h.17c.47-.01.73-.12 1.16-.48.41-.37.88-1.02 1.34-1.86.94-1.67 1.75-3.94 3.2-5.79a5.6 5.6 0 014.43-2.35 5.04 5.04 0 013.6 1.51c.87.86 1.42 1.87 1.91 2.88.95 2 1.7 4.12 2.56 5.17.6.7.93.9 1.67.92H74c.47-.01.73-.12 1.16-.48.41-.37.88-1.02 1.34-1.86.94-1.67 1.75-3.93 3.2-5.79a5.61 5.61 0 014.43-2.35 5.05 5.05 0 013.6 1.51c.87.86 1.43 1.87 1.91 2.88.95 2 1.7 4.12 2.56 5.17.6.7.93.9 1.67.92h.08c.47-.01.72-.12 1.15-.48.42-.37.88-1.02 1.34-1.85.95-1.68 1.75-3.94 3.2-5.8a5.61 5.61 0 014.43-2.35 5.05 5.05 0 013.6 1.51c.87.86 1.43 1.87 1.92 2.88.94 2 1.68 4.12 2.55 5.17.6.7.93.9 1.67.92h.06v3.8h-.06a5.57 5.57 0 01-3.78-1.45 9.74 9.74 0 01-2.1-2.9c-1.02-2.05-1.74-4.22-2.55-5.28-.57-.72-.8-.83-1.3-.86-.42.02-.65.1-1.06.47-.4.36-.86 1.02-1.31 1.86-.94 1.68-1.76 3.96-3.24 5.82a5.78 5.78 0 01-4.48 2.34l-.04-.01z"/>
  <path fill="#ccc" d="M14.13 53.43zm95.9-1.44a9.76 9.76 0 01-2.1-2.9c-1.02-2.05-1.74-4.22-2.55-5.28-.57-.72-.8-.83-1.31-.86-.41.01-.64.1-1.05.47-.4.36-.86 1.02-1.31 1.86-.94 1.68-1.76 3.96-3.24 5.82a5.77 5.77 0 01-4.52 2.33h-.09c-1.49.02-2.84-.59-3.78-1.44a9.78 9.78 0 01-2.1-2.9c-1.02-2.05-1.74-4.22-2.54-5.28-.57-.72-.8-.83-1.31-.86-.42.02-.64.1-1.06.47-.4.36-.86 1.02-1.3 1.86-.94 1.68-1.76 3.96-3.24 5.82A5.77 5.77 0 0174 53.43h-.05c-1.5.02-2.85-.59-3.79-1.44a9.75 9.75 0 01-2.1-2.9c-1.02-2.05-1.74-4.21-2.54-5.28-.57-.72-.8-.83-1.31-.86-.42.02-.64.1-1.05.47-.4.36-.87 1.02-1.32 1.86-.93 1.68-1.75 3.96-3.23 5.82a5.78 5.78 0 01-4.53 2.34h-.17c-1.5.01-2.85-.6-3.78-1.45a9.76 9.76 0 01-2.1-2.9c-1.02-2.05-1.74-4.21-2.55-5.28-.57-.72-.8-.83-1.3-.85-.42 0-.65.1-1.06.46-.4.36-.86 1.02-1.31 1.86-.94 1.68-1.75 3.96-3.24 5.82a5.77 5.77 0 01-4.52 2.34H34a5.6 5.6 0 01-3.78-1.45 9.74 9.74 0 01-2.1-2.9c-1.02-2.04-1.74-4.21-2.55-5.28-.57-.72-.8-.83-1.3-.85-.42 0-.64.1-1.06.46-.4.36-.86 1.02-1.31 1.86-.94 1.68-1.76 3.97-3.24 5.82a5.77 5.77 0 01-4.52 2.34v-3.8c.46 0 .72-.12 1.15-.48a7.2 7.2 0 001.34-1.85c.95-1.67 1.75-3.94 3.2-5.79a5.61 5.61 0 014.43-2.36 5.04 5.04 0 013.6 1.52c.87.86 1.43 1.87 1.92 2.88.94 2 1.68 4.12 2.55 5.16.6.7.93.9 1.67.93h.06c.47-.02.72-.13 1.15-.49a7.2 7.2 0 001.34-1.85c.95-1.67 1.75-3.94 3.2-5.79a5.61 5.61 0 014.43-2.36 5.04 5.04 0 013.6 1.52 10.2 10.2 0 011.92 2.88c.94 2 1.68 4.12 2.55 5.16.6.7.93.9 1.67.93h.17c.47-.02.73-.13 1.16-.49.41-.36.88-1.02 1.34-1.85.94-1.67 1.75-3.94 3.19-5.79a5.6 5.6 0 014.44-2.36 5.04 5.04 0 013.6 1.52c.86.86 1.42 1.87 1.91 2.88.95 2 1.69 4.12 2.56 5.16.6.7.92.9 1.67.93H74c.47-.02.73-.13 1.16-.49.41-.36.88-1.02 1.34-1.85.94-1.67 1.75-3.94 3.2-5.79a5.61 5.61 0 014.43-2.36 5.05 5.05 0 013.6 1.52c.87.86 1.43 1.87 1.91 2.88.95 2 1.69 4.12 2.56 5.16.6.7.93.9 1.67.93h.08c.46-.02.72-.13 1.15-.49.42-.36.88-1.02 1.34-1.85.94-1.67 1.75-3.94 3.2-5.79a5.61 5.61 0 014.43-2.36 5.05 5.05 0 013.6 1.52 10.2 10.2 0 011.92 2.88c.94 2 1.68 4.12 2.55 5.16.6.7.93.9 1.67.93h.06v3.79h-.12a5.6 5.6 0 01-3.72-1.45z"/>
  <path fill="#b3b3b3" d="M110.03 34.29a9.74 9.74 0 01-2.1-2.9c-1.02-2.05-1.74-4.22-2.55-5.28-.57-.72-.8-.83-1.31-.86-.41.01-.64.1-1.05.47-.4.35-.86 1.02-1.31 1.86-.94 1.68-1.76 3.96-3.24 5.82a5.77 5.77 0 01-4.52 2.33h-.09c-1.49.02-2.84-.59-3.78-1.44a9.76 9.76 0 01-2.1-2.9c-1.02-2.05-1.74-4.22-2.54-5.28-.57-.72-.8-.83-1.31-.86-.42.01-.64.1-1.06.47a7.3 7.3 0 00-1.3 1.86c-.94 1.68-1.76 3.96-3.24 5.82A5.77 5.77 0 0174 35.73h-.05c-1.5.02-2.85-.59-3.79-1.44a9.73 9.73 0 01-2.1-2.9c-1.02-2.05-1.74-4.22-2.54-5.28-.57-.72-.8-.83-1.31-.86-.42.01-.64.1-1.05.47-.4.35-.87 1.02-1.32 1.86-.93 1.68-1.75 3.96-3.23 5.82a5.78 5.78 0 01-4.53 2.33h-.17c-1.5.02-2.85-.59-3.78-1.44a9.74 9.74 0 01-2.1-2.9c-1.02-2.05-1.74-4.22-2.55-5.28-.57-.72-.8-.83-1.3-.86-.42.01-.65.1-1.06.47-.4.35-.86 1.02-1.31 1.86-.94 1.68-1.75 3.96-3.24 5.82a5.77 5.77 0 01-4.52 2.33H34a5.6 5.6 0 01-3.78-1.44 9.72 9.72 0 01-2.1-2.9c-1.02-2.05-1.74-4.22-2.55-5.28-.57-.72-.8-.83-1.3-.86-.42.01-.64.1-1.06.47-.4.35-.86 1.02-1.31 1.86-.94 1.68-1.76 3.96-3.24 5.82a5.77 5.77 0 01-4.52 2.33v-3.79c.46-.01.72-.12 1.15-.48.41-.37.88-1.02 1.34-1.86.95-1.67 1.75-3.93 3.2-5.79a5.62 5.62 0 014.43-2.35 5.04 5.04 0 013.6 1.51 10.2 10.2 0 011.92 2.88c.94 2 1.68 4.12 2.55 5.17.6.7.93.9 1.67.92h.06c.47-.01.72-.12 1.15-.48.41-.37.88-1.02 1.34-1.86.95-1.67 1.75-3.93 3.2-5.79a5.62 5.62 0 014.43-2.35 5.04 5.04 0 013.6 1.51c.87.86 1.43 1.87 1.92 2.88.94 2 1.68 4.12 2.55 5.17.6.7.93.9 1.67.92h.17c.47-.01.73-.12 1.16-.48.41-.37.88-1.02 1.34-1.86.94-1.67 1.75-3.93 3.19-5.79a5.61 5.61 0 014.44-2.35 5.04 5.04 0 013.6 1.51 10.2 10.2 0 011.91 2.88c.95 2 1.69 4.12 2.56 5.17.6.7.92.9 1.67.92H74c.47-.01.73-.12 1.16-.48.41-.37.88-1.02 1.34-1.86.94-1.67 1.75-3.93 3.2-5.79a5.62 5.62 0 014.43-2.35 5.05 5.05 0 013.6 1.51c.87.86 1.43 1.87 1.91 2.88.95 2 1.69 4.12 2.56 5.17.6.7.93.9 1.67.92h.08c.46-.01.72-.12 1.15-.48.42-.37.88-1.02 1.34-1.86.94-1.67 1.75-3.93 3.2-5.79a5.62 5.62 0 014.43-2.35 5.04 5.04 0 013.6 1.51c.87.86 1.43 1.87 1.92 2.88.94 2 1.68 4.12 2.55 5.17.6.7.93.9 1.67.92h.06v3.8h-.12c-1.47 0-2.8-.61-3.72-1.45z"/>
</svg>
