<svg xmlns="http://www.w3.org/2000/svg" viewBox="0 0 128 128">
  <path fill="#ffe500" d="M100.45 60.05A25.27 25.27 0 0189.17 12.2a29.6 29.6 0 1022.25 45.32 25.1 25.1 0 01-10.97 2.53z"/>
  <path fill="#e6e6e6" d="M110.95 85.23A23.4 23.4 0 0081.4 62.66a24.47 24.47 0 00-46.93 9.53 18.23 18.23 0 00.81 36.44h52.37a23.4 23.4 0 0023.3-23.4z"/>
  <path fill="#999" d="M32.87 111.15v-.14a20.75 20.75 0 01-.82-41.12 26.98 26.98 0 0150.76-10.15 25.92 25.92 0 0130.66 25.48v.01a25.92 25.92 0 01-23.29 25.79v.13h-57.3zm54.14-5.05h.63a20.86 20.86 0 0020.78-20.87 20.89 20.89 0 00-20.87-20.87c-1.9 0-3.73.26-5.48.74l-2.12.58-.87-2.02A21.93 21.93 0 0037 72.2l-.02 2.4-2.4.11a15.7 15.7 0 00-15 15.69 15.72 15.72 0 0015.69 15.7H87z"/>
</svg>
