<svg xmlns="http://www.w3.org/2000/svg" baseProfile="tiny" version="1.2" viewBox="0 0 128 128">
  <g fill="#FFF100">
    <path d="M98.9 44.86a21.55 21.55 0 11-39.8 16.5 21.55 21.55 0 0139.8-16.5zM76.13 26.88l-12.55-11-1.09 16.65zM95.51 32.53l-1.09-16.64-12.55 10.99zM105.22 50.23l11-12.54-16.65-1.1zM99.57 69.61l16.65-1.09-11-12.55zM52.77 50.23L41.78 37.69l16.64-1.1z"/>
  </g>
  <path fill="#FFF" d="M110.95 85.23A23.4 23.4 0 0081.4 62.66a24.46 24.46 0 00-46.93 9.53 18.23 18.23 0 00.81 36.43H87.66a23.39 23.39 0 0023.29-23.4z"/>
  <path fill="#CCC" d="M32.87 111.15V111a20.76 20.76 0 01-.82-41.12 26.98 26.98 0 0150.76-10.14 25.92 25.92 0 0130.66 25.48A25.92 25.92 0 0190.19 111v.14H32.87zm54.15-5.06h.63a20.86 20.86 0 0020.77-20.86 20.89 20.89 0 00-20.86-20.87c-1.9 0-3.74.26-5.5.74l-2.11.57-.86-2.01A21.93 21.93 0 0037 72.2l-.01 2.4-2.41.11a15.7 15.7 0 00-15 15.68 15.72 15.72 0 0015.67 15.7h51.77z"/>
</svg>
