<svg xmlns="http://www.w3.org/2000/svg" baseProfile="tiny" version="1.2" viewBox="0 0 128 128">
  <path fill="#CCC" d="M112.13 51.12a23.36 23.36 0 00-29.5-22.54 24.43 24.43 0 00-46.86 9.51 18.2 18.2 0 00.81 36.38h52.29a23.35 23.35 0 0023.25-23.35z"/>
  <path fill="#333" d="M34.17 77v-.14a20.73 20.73 0 01-.82-41.06 26.95 26.95 0 0150.68-10.13 25.88 25.88 0 0130.62 25.44c0 13.41-10.2 24.43-23.26 25.75V77H34.17zm4.13-38.9l-.01 2.41-2.4.1A15.67 15.67 0 0020.9 56.28a15.7 15.7 0 0015.6 15.67h52.35a20.83 20.83 0 0020.74-20.83 20.86 20.86 0 00-20.83-20.83c-1.9 0-3.73.26-5.48.74l-2.12.58-.86-2.02A21.89 21.89 0 0038.3 38.1z"/>
  <path fill="#B8FAFF" d="M25.7 108.27a2.76 2.76 0 01-4.78-2.76l9.38-16.24a2.76 2.76 0 114.78 2.76l-9.38 16.24zM64.32 108.27a2.76 2.76 0 01-4.78-2.76l9.39-16.24a2.76 2.76 0 014.78 2.76l-9.39 16.24zM49.61 97.85c-.51.9-2 1-3.32.23-1.32-.76-1.97-2.1-1.45-2.99l6.33-10.96c.51-.9 2-1 3.32-.23 1.32.76 1.97 2.1 1.46 2.99L49.6 97.85zM89.02 97.85c-.51.9-2 1-3.32.23-1.32-.76-1.97-2.1-1.46-2.99l6.33-10.96c.52-.9 2-1 3.32-.23 1.32.76 1.98 2.1 1.46 2.99l-6.33 10.96z"/>
</svg>
