<svg xmlns="http://www.w3.org/2000/svg" width="48" height="48"><g fill="#BBDEFB"><circle cx="29.5" cy="13.5" r="8.5"/><circle cx="37" cy="21.893" r="7"/><circle cx="11" cy="22" r="7"/><circle cx="17.5" cy="14.5" r="6.5"/><circle cx="25" cy="19.893" r="7"/><path d="M7 25a4 4 0 004 4h25a4 4 0 004-4v-1a4 4 0 00-4-4H11a4 4 0 00-4 4v1z"/></g><g fill="#2196F3"><path d="M34.95 37.15a2.899 2.899 0 11-4.101-4.1C31.982 31.917 37 31 37 31s-.918 5.02-2.05 6.15zM23.95 41.15a2.9 2.9 0 01-4.101-4.101c1.133-1.133 6.152-2.05 6.152-2.05s-.919 5.021-2.051 6.151zM13.95 37.15a2.899 2.899 0 11-4.101-4.1C10.981 31.917 16 31 16 31s-.918 5.02-2.05 6.15z"/></g></svg>
