<svg xmlns="http://www.w3.org/2000/svg" width="48" height="48"><g fill="#BBDEFB"><circle cx="29.5" cy="13.5" r="8.5"/><circle cx="37" cy="21.893" r="7"/><circle cx="11" cy="22" r="7"/><circle cx="17.5" cy="14.5" r="6.5"/><circle cx="25" cy="19.893" r="7"/><path d="M7 25a4 4 0 004 4h25a4 4 0 004-4v-1a4 4 0 00-4-4H11a4 4 0 00-4 4v1z"/></g><g fill="#2196F3"><path d="M35.95 37.15a2.899 2.899 0 11-4.101-4.1C32.982 31.917 38 31 38 31s-.918 5.02-2.05 6.15zM14.95 37.15a2.899 2.899 0 11-4.101-4.1C11.981 31.917 17 31 17 31s-.918 5.02-2.05 6.15zM23 34h2v9h-2z"/><path d="M28.384 39.92l-1.014 1.724-7.757-4.564 1.014-1.724z"/><path d="M27.434 35.425l.978 1.743-7.847 4.407-.978-1.742z"/></g></svg>
