<svg xmlns="http://www.w3.org/2000/svg" baseProfile="tiny" version="1.2" viewBox="0 0 128 128">
  <path fill="#CCC" d="M112.13 51.12a23.36 23.36 0 00-29.5-22.54 24.43 24.43 0 00-46.86 9.51 18.2 18.2 0 00.81 36.38h52.29a23.35 23.35 0 0023.25-23.35z"/>
  <path fill="#333" d="M34.17 77v-.14a20.73 20.73 0 01-.82-41.06 26.95 26.95 0 0150.68-10.13 25.89 25.89 0 0130.62 25.44c0 13.41-10.2 24.43-23.26 25.75V77H34.17zm4.13-38.9l-.02 2.41-2.4.1a15.67 15.67 0 00-14.97 15.66 15.7 15.7 0 0015.6 15.67h52.35a20.83 20.83 0 0020.74-20.83 20.86 20.86 0 00-20.83-20.83c-1.9 0-3.73.26-5.48.74l-2.12.58-.86-2.02A21.9 21.9 0 0038.3 38.1z"/>
  <circle cx="39.31" cy="86.21" r="4.41" fill="#FFF"/>
  <circle cx="17.73" cy="100.58" r="4.41" fill="#FFF"/>
  <circle cx="87.17" cy="89.79" r="4.41" fill="#FFF"/>
  <circle cx="61.31" cy="115.15" r="4.41" fill="#FFF"/>
  <path fill="#FFF" d="M45.15 126.73c.04-13.69 2.72-25.34 7.02-30.78 1.44-1.8 3.22-3.03 5.28-3.03v2.53c-.98-.01-2.11.59-3.31 2.08-1.18 1.47-2.33 3.73-3.3 6.58-1.93 5.71-3.16 13.74-3.16 22.62h-2.53z"/>
  <path fill="#FFF" d="M45.3 126.38c0-6.58-2.2-12.52-5.69-16.76-3.5-4.25-8.24-6.8-13.46-6.8v-2.53c12.18.04 21.65 11.84 21.68 26.09H45.3zM89.87 127.28c0-5.61.81-10.69 2.17-14.47 1.37-3.7 3.2-6.52 6.24-6.65v2.52c-.91-.13-2.66 1.5-3.86 4.98-1.23 3.4-2.02 8.26-2.02 13.63h-2.53z"/>
  <g>
    <path fill="#FFF" d="M90.4 127c0-6.87-1.7-13.08-4.36-17.48-2.67-4.42-6.2-6.92-9.86-6.9-3.67-.02-7.2 2.48-9.86 6.9l-2.17-1.3c2.93-4.87 7.15-8.12 12.03-8.13 4.88 0 9.1 3.26 12.03 8.12 2.94 4.9 4.7 11.5 4.71 18.8H90.4z"/>
  </g>
</svg>
