<svg xmlns="http://www.w3.org/2000/svg" baseProfile="tiny" version="1.2" viewBox="0 0 128 128">
  <path fill="#CCC" d="M112.12 51.12a23.35 23.35 0 00-29.5-22.54 24.43 24.43 0 00-46.85 9.51 18.2 18.2 0 00.8 36.38H88.88a23.35 23.35 0 0023.25-23.35z"/>
  <path fill="#333" d="M34.17 77v-.14a20.73 20.73 0 01-.82-41.06 26.94 26.94 0 0150.68-10.13 25.88 25.88 0 0130.62 25.44c0 13.41-10.2 24.43-23.26 25.75V77H34.17zm54.06-5.06h.63a20.83 20.83 0 0020.74-20.82 20.85 20.85 0 00-20.83-20.83c-1.9 0-3.73.25-5.48.73l-2.12.58-.87-2.02a21.9 21.9 0 00-42 8.52l-.02 2.41-2.4.1a15.67 15.67 0 00-14.97 15.66 15.7 15.7 0 0015.63 15.67h51.68z"/>
  <path fill="#FFF" d="M43.17 85.8h-3.85l2.72-2.72-1.79-1.78-2.72 2.72v-3.85h-2.52v3.85l-2.72-2.72-1.79 1.78 2.72 2.72h-3.85v2.53h3.85l-2.72 2.72 1.79 1.79 2.72-2.72v3.84h2.52v-3.84l2.72 2.72 1.79-1.79-2.72-2.72h3.85zM58.11 101.04h-3.85l2.72-2.72-1.79-1.78-2.72 2.72v-3.85h-2.52v3.84l-2.72-2.71-1.79 1.78 2.72 2.72h-3.85v2.53h3.85l-2.72 2.72 1.79 1.79 2.72-2.72v3.84h2.52v-3.84l2.72 2.72 1.79-1.79-2.72-2.72h3.85zM85.38 85.8h-3.85l2.72-2.72-1.79-1.78-2.72 2.72v-3.85h-2.52v3.85L74.5 81.3l-1.79 1.78 2.72 2.72h-3.84v2.53h3.84l-2.72 2.72 1.79 1.79 2.72-2.72v3.84h2.52v-3.84l2.72 2.72 1.79-1.79-2.72-2.72h3.85zM102.54 101.04h-3.85l2.72-2.72-1.78-1.78-2.72 2.72v-3.85h-2.53v3.84l-2.72-2.71-1.78 1.78 2.71 2.72h-3.84v2.53h3.84l-2.71 2.72 1.78 1.79 2.72-2.72v3.84h2.53v-3.84l2.72 2.72 1.78-1.79-2.71-2.72h3.84zM75.9 111.86h-3.85l2.72-2.72-1.79-1.79-2.71 2.72v-3.84h-2.53v3.84l-2.72-2.72-1.79 1.79 2.72 2.72h-3.84v2.53h3.84l-2.72 2.71 1.79 1.79 2.72-2.72v3.85h2.53v-3.85l2.71 2.72 1.79-1.79-2.71-2.71h3.84z"/>
  <g>
    <path fill="#FFF" d="M31.01 111.86h-3.85l2.72-2.72-1.78-1.79-2.72 2.72v-3.84h-2.53v3.84l-2.72-2.72-1.79 1.79 2.72 2.72h-3.84v2.53h3.84l-2.72 2.71 1.79 1.79 2.72-2.72v3.85h2.53v-3.85l2.72 2.72 1.78-1.79-2.71-2.71h3.84z"/>
  </g>
</svg>
