<svg xmlns="http://www.w3.org/2000/svg" viewBox="0 0 48 48"><circle cx="29.5" cy="15.5" r="8.5" fill="#bbdefb"/><circle cx="37" cy="23.89" r="7" fill="#bbdefb"/><circle cx="11" cy="24" r="7" fill="#bbdefb"/><circle cx="17.5" cy="16.5" r="6.5" fill="#bbdefb"/><circle cx="25" cy="21.89" r="7" fill="#bbdefb"/><path fill="#bbdefb" d="M7 27a4 4 0 0 0 4 4h25a4 4 0 0 0 4-4v-1a4 4 0 0 0-4-4H11a4 4 0 0 0-4 4v1z"/><path fill="none" stroke="#2196f3" stroke-linecap="round" stroke-linejoin="round" stroke-miterlimit="10" stroke-width="2" d="M27.36 36.72A4.75 4.75 0 0 0 32 40c2.76-.1 5-2.24 5-5a5 5 0 0 0-5-5H12M21.27 20.56A4.01 4.01 0 0 1 29 22c0 2.19-1.81 4-4 4H14M15.36 38.4c.48.96 1.48 1.6 2.64 1.6 1.64 0 3-1.36 3-3s-1.36-3-3-3h-8"/></svg>
