<svg xmlns="http://www.w3.org/2000/svg" baseProfile="tiny" version="1.2" viewBox="0 0 128 128">
  <path fill="#FFF" d="M17.08 97.34c-2.9-3.22-4.38-7.62-4.38-12.47 0-8.47 4.47-18.37 14.16-26.68l2.47 2.88c-9 7.71-12.85 16.68-12.84 23.8 0 4.09 1.24 7.53 3.4 9.93 2.18 2.4 5.28 3.87 9.5 3.88 2.46 0 5.28-.52 8.44-1.7 27.07-10.23 39.98-19.4 50.8-23.2 1.26-.43 2.5-.64 3.72-.64 7.26.14 12.2 6.88 12.26 13.09a9.1 9.1 0 01-2.88 6.85c-2 1.84-4.98 2.86-8.8 2.86l-1.19-.03c-2.2-.18-3.92-1.56-5.4-3.33a10.97 10.97 0 01-2.53-6.68c0-.19 0-.41.02-.67l3.78.38-.02.3c-.01 1.39.7 3.06 1.71 4.3.97 1.27 2.32 1.97 2.62 1.92l1 .02c3.2 0 5.12-.83 6.25-1.86a5.3 5.3 0 001.65-4.06c.01-2.08-.94-4.52-2.51-6.32-1.59-1.82-3.68-2.98-5.97-2.98-.78 0-1.6.13-2.46.43-9.94 3.42-23.38 12.83-50.71 23.16a27.86 27.86 0 01-9.78 1.95h-.05c-5.1 0-9.38-1.91-12.26-5.13z"/>
  <path fill="#FFF" d="M39.11 87.33c-6.41-1.61-9.5-6.6-9.39-11.84.08-7.94 5.63-16.9 12.7-22.28l2.28 3.03C38.46 60.84 33.44 69.4 33.5 75.5c.12 4 1.6 6.73 6.59 8.18 1.11.3 2.34.45 3.68.45 6.73.04 15.96-3.86 24.4-8.37 8.48-4.5 16.15-9.52 20.66-11.64a18.47 18.47 0 017.84-1.72c4.18 0 8.4 1.35 11.66 4.18 3.26 2.83 5.43 7.2 5.4 12.73 0 .9-.05 1.84-.15 2.8l-3.77-.43c.1-.83.14-1.62.14-2.37-.06-9-6.49-13-13.28-13.11-2.17 0-4.34.46-6.23 1.35-4.02 1.88-11.88 6.97-20.5 11.56-8.66 4.58-18.1 8.77-26.17 8.81-1.61 0-3.18-.18-4.67-.58z"/>
  <path fill="#FFF" d="M48.12 73.8c-1.3-1.76-1.8-3.97-1.8-6.28.05-5.8 3.07-12.71 8.52-16.6l2.17 3.1c-4.21 2.9-6.95 9.04-6.9 13.5 0 1.76.41 3.19 1.05 4.03.65.84 1.42 1.3 2.99 1.34.64 0 1.41-.1 2.32-.35 10.75-2.93 22.2-13.4 31.26-17.17a33.68 33.68 0 0112.42-2.25c5.94.06 11.44 1.26 14.58 4.26l-2.67 2.7c-1.64-1.75-6.58-3.22-11.9-3.17-3.78 0-7.76.65-11 1.97-8 3.18-19.68 13.92-31.68 17.31-1.18.33-2.29.5-3.33.5h-.1a7.22 7.22 0 01-5.93-2.88z"/>
  <path fill="#FFF" d="M63.13 60.05a4.58 4.58 0 01-1.8-3.8c.02-2.1.97-4.33 2.79-7.13l3.16 2.1c-1.64 2.45-2.2 4.23-2.17 5.03.04.59.11.6.28.76.18.15.75.36 1.66.36 2.52.03 7.07-1.57 11.27-4.48 9.15-6.2 19.67-7.6 24.36-10.78 1.57-1.04 2.4-2.05 2.76-3.41a9 9 0 00.29-2.23c-.01-4.3-3.5-7.16-6.88-7.16-.82 0-1.62.16-2.38.51-1.17.5-2.78 2.29-3.88 4.43-1.14 2.11-1.83 4.58-1.81 6.03 0 .59.12.96.16 1.02l-3.28 1.9a5.8 5.8 0 01-.67-2.92c.02-2.44.9-5.22 2.25-7.8 1.38-2.56 3.18-4.92 5.65-6.1a9.41 9.41 0 013.96-.86 10.85 10.85 0 0110.67 10.95c0 1.02-.13 2.08-.4 3.16-.64 2.5-2.33 4.34-4.37 5.65-2.04 1.34-4.5 2.29-7.18 3.24-5.35 1.88-11.62 3.74-17.1 7.5-4.73 3.2-9.58 5.1-13.42 5.13-1.4 0-2.76-.26-3.91-1.1z"/>
</svg>
