<?xml version="1.0" standalone="no"?>
<!DOCTYPE svg PUBLIC "-//W3C//DTD SVG 20010904//EN"
 "http://www.w3.org/TR/2001/REC-SVG-20010904/DTD/svg10.dtd">
<svg version="1.0" xmlns="http://www.w3.org/2000/svg"
 width="310.000000pt" height="310.000000pt" viewBox="0 0 310.000000 310.000000"
 preserveAspectRatio="xMidYMid meet">
<metadata>
Created by potrace 1.11, written by Peter Selinger 2001-2013
</metadata>
<g transform="translate(0.000000,310.000000) scale(0.100000,-0.100000)"
fill="#000000" stroke="none">
<path d="M870 2565 l0 -75 70 0 70 0 1 -297 c1 -164 2 -302 4 -308 1 -5 3 -16
3 -23 2 -9 21 -12 75 -10 l72 3 3 318 2 317 70 0 70 0 0 75 0 75 -220 0 -220
0 0 -75z"/>
<path d="M1360 2245 l0 -395 75 0 75 0 0 175 0 175 60 0 60 0 0 -175 0 -175
75 0 75 0 0 395 0 395 -75 0 -75 0 0 -140 0 -139 -34 -6 c-18 -4 -44 -5 -57
-3 -24 3 -24 4 -27 146 l-3 142 -74 0 -75 0 0 -395z"/>
<path d="M1830 2245 l0 -395 185 0 186 0 -3 73 -3 72 -107 3 -108 3 0 99 0 99
88 3 87 3 3 73 c2 53 0 72 -10 73 -7 1 -47 2 -88 3 l-75 1 -3 67 -3 67 108 3
108 3 3 73 3 72 -186 0 -185 0 0 -395z"/>
<path d="M130 945 l0 -396 73 3 72 3 3 126 3 127 51 6 c63 9 82 18 130 64 53
50 71 112 66 221 -5 92 -25 146 -70 188 -44 42 -90 53 -213 53 l-115 0 0 -395z
m229 219 c38 -49 22 -180 -24 -198 -9 -3 -25 -6 -36 -6 -18 0 -19 8 -19 115
l0 115 29 0 c20 0 36 -9 50 -26z"/>
<path d="M665 1318 c-26 -15 -48 -39 -62 -68 -22 -43 -23 -54 -23 -310 0 -256
1 -266 23 -305 12 -22 40 -50 62 -63 35 -20 51 -22 131 -20 81 3 94 6 126 30
65 50 68 65 68 363 0 298 -3 313 -68 363 -32 24 -45 27 -126 30 -80 2 -96 0
-131 -20z m170 -373 l0 -240 -50 0 -50 0 -3 230 c-1 126 0 236 3 243 3 9 20
12 52 10 l48 -3 0 -240z"/>
<path d="M1123 1315 c-27 -16 -49 -40 -62 -68 -20 -41 -21 -60 -21 -306 0
-241 2 -265 20 -301 11 -21 34 -49 52 -62 29 -20 44 -23 134 -23 94 0 103 2
136 27 60 46 68 76 68 252 l0 156 -109 0 c-122 0 -121 1 -121 -75 0 -64 7 -75
47 -75 l34 0 -3 -67 -3 -68 -50 0 -50 0 0 240 0 240 50 0 50 0 5 -45 5 -45 73
-3 72 -3 0 63 c0 79 -28 133 -85 165 -60 34 -184 33 -242 -2z"/>
<path d="M1590 1319 c-20 -11 -47 -37 -60 -56 -25 -36 -25 -38 -28 -307 -3
-268 -3 -272 21 -316 36 -69 89 -92 199 -88 96 3 124 17 166 78 22 32 22 39
22 315 0 277 0 283 -23 316 -42 62 -79 79 -176 79 -68 0 -93 -5 -121 -21z
m168 -371 l-3 -243 -50 0 -50 0 -3 230 c-1 126 0 235 2 242 4 8 24 13 56 13
l50 0 -2 -242z"/>
<path d="M1965 1328 c-3 -7 -4 -184 -3 -393 l3 -380 105 -3 c58 -2 123 2 146
9 57 15 107 59 135 116 21 43 24 65 27 219 6 269 -15 349 -110 411 -39 26 -49
28 -170 31 -100 3 -129 1 -133 -10z m236 -164 c24 -25 24 -28 24 -219 0 -191
0 -194 -24 -219 -17 -18 -35 -26 -58 -26 l-33 0 0 245 0 245 33 0 c23 0 41 -8
58 -26z"/>
<path d="M2565 1328 c-10 -29 -135 -723 -135 -750 l0 -29 72 3 73 3 22 115
c12 63 22 116 22 118 1 2 29 2 63 0 l63 -3 17 -95 c28 -154 18 -140 97 -140
46 0 70 4 74 13 4 10 -126 732 -138 765 -3 8 -36 12 -115 12 -79 0 -112 -4
-115 -12z m145 -370 c0 -13 -8 -18 -30 -18 -20 0 -30 5 -30 15 0 18 20 116 27
135 6 14 31 -92 33 -132z"/>
</g>
</svg>
